<?xml version="1.0" standalone="no"?>
<!DOCTYPE svg PUBLIC "-//W3C//DTD SVG 20010904//EN"
 "http://www.w3.org/TR/2001/REC-SVG-20010904/DTD/svg10.dtd">
<svg version="1.0" xmlns="http://www.w3.org/2000/svg"
 width="345.000000pt" height="316.000000pt" viewBox="0 0 345.000000 316.000000"
 preserveAspectRatio="xMidYMid meet">

<g transform="translate(0.000000,316.000000) scale(0.100000,-0.100000)"
fill="#16a6f9" stroke="none">
<path d="M2320 2340 l0 -740 190 0 c338 0 489 55 664 241 129 137 189 292 188
489 -1 193 -65 357 -194 495 -174 186 -360 255 -690 255 l-158 0 0 -740z m485
351 c232 -114 295 -428 123 -616 -53 -58 -159 -118 -230 -131 l-38 -6 0 397 0
398 41 -6 c23 -3 69 -19 104 -36z"/>
<path d="M70 2335 l0 -745 160 0 160 0 0 285 0 285 315 0 315 0 0 170 0 170
-315 0 -315 0 0 110 0 110 385 0 385 0 0 175 0 175 -545 0 -545 0 0 -735z"/>
<path d="M1180 2583 c0 -545 2 -561 68 -687 71 -135 213 -245 363 -281 277
-65 562 97 656 374 22 65 22 75 23 574 l0 507 -165 0 -164 0 -3 -482 c-3 -475
-3 -484 -25 -524 -42 -79 -116 -124 -204 -124 -54 0 -139 48 -174 98 l-30 44
-3 494 -3 494 -169 0 -170 0 0 -487z"/>
<path d="M2320 830 l0 -740 190 0 c338 0 489 55 664 241 129 137 189 292 188
489 -1 193 -65 357 -194 495 -174 186 -360 255 -690 255 l-158 0 0 -740z m485
351 c232 -114 295 -428 123 -616 -53 -58 -159 -118 -230 -131 l-38 -6 0 397 0
398 41 -6 c23 -3 69 -19 104 -36z"/>
<path d="M70 825 l0 -735 160 0 160 0 0 275 0 275 215 0 215 0 0 -275 0 -275
170 0 170 0 0 735 0 735 -170 0 -170 0 0 -290 0 -290 -215 0 -215 0 0 290 0
290 -160 0 -160 0 0 -735z"/>
<path d="M1180 1073 c0 -545 2 -561 68 -687 71 -135 213 -245 363 -281 277
-65 562 97 656 374 22 65 22 75 23 574 l0 507 -165 0 -164 0 -3 -482 c-3 -475
-3 -484 -25 -524 -42 -79 -116 -124 -204 -124 -54 0 -139 48 -174 98 l-30 44
-3 494 -3 494 -169 0 -170 0 0 -487z"/>
</g>
</svg>
